<svg version="1.2" xmlns="http://www.w3.org/2000/svg" viewBox="0 0 530 348" width="530" height="348">
	<title>noun-code-1561708-svg</title>
	<style>
		.s0 { fill: #6dacdf } 
	</style>
	<g id="Layer">
		<path id="Layer" class="s0" d="m320.1 23.5c4.5 5.6 6 13.1 4 20.1l-72.8 268.8c-2.1 7.7-8.2 13.8-15.9 15.8-7.8 2.1-16.1-0.1-21.7-5.8-5.7-5.7-7.9-14-5.8-21.7l72.8-268.8c1.2-4.7 3.8-8.8 7.6-11.8 3.7-3.1 8.3-4.8 13.1-5.1 7.2-0.3 14.2 2.8 18.7 8.5zm-132.6 26.7c4.3 4.6 6.5 10.9 5.9 17.2-0.5 6.3-3.7 12.1-8.8 15.9l-112.2 88.9 112.2 88.7c5.1 3.6 8.4 9 9.3 15.1 0.9 6.1-0.8 12.3-4.6 17.1-3.8 4.8-9.4 7.9-15.5 8.5-6.1 0.5-12.2-1.4-16.8-5.5l-134.4-106.4c-5.4-4.2-8.6-10.7-8.6-17.6 0-6.8 3.2-13.3 8.6-17.6l134.4-106.4c3.9-3.2 8.7-5 13.8-5 6.3-0.1 12.4 2.5 16.7 7.1zm187.5-2.1l134.4 106.4c5.4 4.3 8.6 10.8 8.6 17.6 0 6.9-3.2 13.4-8.6 17.6l-134.4 106.4c-4.6 4-10.7 6-16.8 5.5-6.1-0.6-11.7-3.7-15.5-8.5-3.8-4.8-5.5-11-4.6-17.1 0.9-6.1 4.3-11.5 9.3-15.1l112.2-88.7-112.2-88.9c-5-3.8-8.2-9.5-8.8-15.7-0.6-6.3 1.5-12.5 5.7-17.1 4.2-4.7 10.1-7.4 16.4-7.4 5.2-0.1 10.3 1.7 14.3 5z"/>
	</g>
</svg>